<?xml version="1.0" encoding="iso-8859-1"?>
<!-- Generator: Adobe Illustrator 19.0.0, SVG Export Plug-In . SVG Version: 6.00 Build 0)  -->
<svg version="1.1" id="Capa_1" xmlns="http://www.w3.org/2000/svg" xmlns:xlink="http://www.w3.org/1999/xlink" x="0px" y="0px"
	 viewBox="0 0 512.002 512.002" style="enable-background:new 0 0 512.002 512.002;" xml:space="preserve">
<g>
	<g>
		<path d="M292.205,160.664c5.828-6.576,9.223-15.166,9.223-24.341c-0.002-20.234-16.464-36.696-36.698-36.696
			c-1.051,0-2.096,0.044-3.135,0.132c-7.636-14.262-22.491-23.372-39.208-23.372c-5.515,0-10.795,1.015-15.673,2.856
			c-8.343-7.757-19.258-12.103-30.883-12.103h-50.042c-19.613,0-36.88,12.802-43.046,30.848
			c-23.647,3.661-41.806,24.156-41.806,48.813c0,10.77,3.475,20.738,9.348,28.864c-0.191,0.772-0.304,1.575-0.304,2.406
			c0,25.882,21.056,46.938,46.938,46.938h67.792l26.581,50.516c1.729,3.286,5.136,5.344,8.85,5.344h28.064c5.523,0,10-4.478,10-10
			v-33.671c6.462,3.313,13.773,5.196,21.521,5.196c26.102,0,47.338-21.235,47.338-47.338
			C307.065,181.518,301.344,169.299,292.205,160.664z M259.726,222.393c-15.074,0-27.338-12.264-27.338-27.338
			c0-5.522-4.477-10-10-10c-5.523,0-10,4.478-10,10c0,8.225,2.112,15.965,5.817,22.712v43.101h-12.026l-26.581-50.516
			c-1.729-3.286-5.136-5.344-8.85-5.344h-73.83c-9.002,0-16.98-4.443-21.874-11.246c4.817,1.572,9.952,2.433,15.287,2.433
			c5.523,0,10-4.478,10-10c0-5.522-4.477-10-10-10c-16.208,0-29.395-13.187-29.395-29.396c0-16.208,13.187-29.395,29.395-29.395
			h0.377c4.962,0,9.174-3.639,9.894-8.548c1.817-12.381,12.645-21.718,25.186-21.718h50.042c4.893,0,9.563,1.376,13.567,3.904
			c-7.161,7.903-11.53,18.381-11.53,29.862c0,5.522,4.477,10,10,10c5.523,0,10-4.478,10-10c0-13.52,11-24.519,24.52-24.519
			c10.849,0,20.272,6.96,23.448,17.318c0.08,0.261,0.17,0.519,0.271,0.772l0.185,0.463c2.003,5.021,7.635,7.545,12.716,5.69
			c1.826-0.666,3.752-1.004,5.723-1.004c9.206,0,16.695,7.489,16.695,16.695c0,5.542-2.722,10.612-7.144,13.694
			c-4.589-1.487-9.479-2.3-14.556-2.3c-5.523,0-10,4.478-10,10c0,5.522,4.477,10,10,10c15.074,0,27.338,12.264,27.338,27.338
			C287.063,210.125,274.8,222.393,259.726,222.393z"/>
	</g>
</g>
<g>
	<g>
		<path d="M174,0.003c-95.944,0-174,78.056-174,174c0,31.474,8.495,62.314,24.567,89.188c2.835,4.739,8.976,6.285,13.715,3.449
			c4.74-2.834,6.284-8.975,3.45-13.715C27.515,229.154,20,201.862,20,174.003c0-84.916,69.084-154,154-154s154,69.084,154,154
			s-69.084,154-154,154c-26.021,0-51.732-6.606-74.355-19.105c-4.834-2.669-10.918-0.917-13.589,3.917
			c-2.671,4.834-0.917,10.918,3.917,13.589c15.615,8.628,32.532,14.757,50.027,18.234v133.36c0,18.748,15.252,34,34,34
			s34-15.252,34-34v-133.34c79.722-15.856,140-86.344,140-170.655C348,78.06,269.944,0.003,174,0.003z M188,477.997
			c0,7.72-6.28,14-14,14c-7.72,0-14-6.28-14-14v-130.58c4.65,0.375,9.32,0.586,14,0.586c4.713,0,9.381-0.195,14-0.565V477.997z"/>
	</g>
</g>
<g>
	<g>
		<path d="M67.21,284.963l-0.274-0.264c-3.968-3.842-10.298-3.74-14.141,0.228c-3.842,3.967-3.74,10.298,0.228,14.14l0.375,0.361
			c1.937,1.85,4.423,2.768,6.905,2.768c2.637,0,5.269-1.036,7.233-3.094C71.35,295.108,71.204,288.778,67.21,284.963z"/>
	</g>
</g>
<g>
	<g>
		<path d="M502,246.161h-75.836c-4.281-13.883-17.229-24-32.497-24c-18.748,0-34,15.252-34,34s15.252,34,34,34
			c15.269,0,28.217-10.117,32.497-24H502c5.523,0,10-4.478,10-10C512,250.638,507.523,246.161,502,246.161z M393.667,270.161
			c-7.72,0-14-6.28-14-14c0-7.72,6.28-14,14-14c7.72,0,14,6.28,14,14S401.387,270.161,393.667,270.161z"/>
	</g>
</g>
<g>
	<g>
		<path d="M478.002,308.099c-15.269,0-28.217,10.117-32.497,24h-58.13c-5.523,0-10,4.478-10,10c0,5.522,4.477,10,10,10h58.13
			c4.281,13.883,17.229,24,32.497,24c18.748,0,34-15.252,34-34S496.75,308.099,478.002,308.099z M478.002,356.099
			c-7.72,0-14-6.28-14-14c0-7.72,6.28-14,14-14c7.72,0,14,6.28,14,14C492.002,349.818,485.722,356.099,478.002,356.099z"/>
	</g>
</g>
<g>
	<g>
		<path d="M343.935,398.161c-18.748,0-34,15.252-34,34s15.252,34,34,34s34-15.252,34-34S362.682,398.161,343.935,398.161z
			 M343.935,446.161c-7.72,0-14-6.28-14-14c0-7.72,6.28-14,14-14c7.72,0,14,6.28,14,14
			C357.935,439.88,351.654,446.161,343.935,446.161z"/>
	</g>
</g>
<g>
	<g>
		<path d="M343,332.099h-62c-5.523,0-10,4.478-10,10c0,5.522,4.477,10,10,10h62c5.523,0,10-4.478,10-10
			C353,336.576,348.523,332.099,343,332.099z"/>
	</g>
</g>
<g>
	<g>
		<path d="M502,422.161h-97c-5.523,0-10,4.478-10,10c0,5.522,4.477,10,10,10h97c5.523,0,10-4.478,10-10
			C512,426.638,507.523,422.161,502,422.161z"/>
	</g>
</g>
<g>
	<g>
		<path d="M281,422.161h-45.163c-5.523,0-10,4.478-10,10c0,5.522,4.477,10,10,10H281c5.523,0,10-4.478,10-10
			C291,426.638,286.523,422.161,281,422.161z"/>
	</g>
</g>
<g>
	<g>
		<path d="M502,70.003H393.667c-5.523,0-10,4.478-10,10c0,5.522,4.477,10,10,10H502c5.523,0,10-4.478,10-10
			C512,74.482,507.523,70.003,502,70.003z"/>
	</g>
</g>
<g>
	<g>
		<path d="M361.07,72.934c-1.86-1.86-4.44-2.93-7.07-2.93s-5.21,1.069-7.07,2.93c-1.86,1.86-2.93,4.44-2.93,7.07
			c0,2.63,1.07,5.21,2.93,7.069c1.86,1.861,4.44,2.931,7.07,2.931s5.21-1.07,7.07-2.931c1.86-1.859,2.93-4.439,2.93-7.069
			C364,77.374,362.93,74.794,361.07,72.934z"/>
	</g>
</g>
<g>
	<g>
		<path d="M478.002,131.94c-15.269,0-28.217,10.117-32.497,24h-65.838c-5.523,0-10,4.478-10,10c0,5.522,4.477,10,10,10h65.838
			c4.281,13.883,17.229,24,32.497,24c18.748,0,34-15.252,34-34S496.75,131.94,478.002,131.94z M478.002,179.94
			c-7.72,0-14-6.28-14-14c0-7.72,6.28-14,14-14c7.72,0,14,6.28,14,14C492.002,173.661,485.722,179.94,478.002,179.94z"/>
	</g>
</g>
<g>
</g>
<g>
</g>
<g>
</g>
<g>
</g>
<g>
</g>
<g>
</g>
<g>
</g>
<g>
</g>
<g>
</g>
<g>
</g>
<g>
</g>
<g>
</g>
<g>
</g>
<g>
</g>
<g>
</g>
</svg>
