<?xml version="1.0" encoding="iso-8859-1"?>
<!-- Generator: Adobe Illustrator 19.0.0, SVG Export Plug-In . SVG Version: 6.00 Build 0)  -->
<svg version="1.1" id="Capa_1" xmlns="http://www.w3.org/2000/svg" xmlns:xlink="http://www.w3.org/1999/xlink" x="0px" y="0px"
	 viewBox="0 0 512 512" style="enable-background:new 0 0 512 512;" xml:space="preserve">
<g>
	<g>
		<path d="M477.349,177.464c14.568-11.834,23.373-29.742,23.373-49.166c0-34.938-28.423-63.361-63.361-63.361
			c-4.123,0-8.178,0.416-12.134,1.18c-5.442-12.508-14.149-23.613-25.108-31.842c-13.759-10.332-30.149-15.793-47.397-15.793
			c-12.022,0-23.419,2.711-33.63,7.535C303.798,9.405,282.492,0,259.662,0h-100.03C121.96,0,90.224,25.892,81.278,60.815
			C35.83,64.626,0.01,102.828,0.01,149.243c0,21.37,7.593,40.999,20.222,56.333c-1.338,1.701-2.142,3.841-2.142,6.172
			c0,46.226,37.607,83.833,83.833,83.833H179c5.523,0,10-4.477,10-10s-4.477-10-10-10h-77.078
			c-31.451,0-57.645-22.871-62.868-52.851c14.189,9.628,31.3,15.258,49.701,15.258c5.523,0,10-4.477,10-10s-4.477-10-10-10
			c-37.907,0-68.746-30.839-68.746-68.746c0-34.513,25.567-63.157,58.754-68.012c0.079,18.044,6.155,35.401,17.211,49.502
			c-6.684,9.635-10.615,21.317-10.615,33.906c0,5.523,4.477,10,10,10s10-4.477,10-10c0-21.857,17.782-39.64,39.64-39.64
			c5.523,0,10-4.477,10-10s-4.477-10-10-10c-13.01,0-25.05,4.199-34.864,11.297c-7.369-10.284-11.38-22.628-11.38-35.421
			C98.756,47.309,126.064,20,159.631,20h100.03c15.982,0,30.959,6.143,42.242,17.061c-15.076,12.7-25.345,30.92-27.667,51.518
			c-18.525,4.31-32.374,20.943-32.374,40.762c0,5.523,4.477,10,10,10c5.523,0,10-4.477,10-10c0-12.053,9.806-21.859,21.859-21.859
			c12.053,0,21.859,9.806,21.859,21.859c0,5.523,4.477,10,10,10s10-4.477,10-10c0-19.406-13.276-35.766-31.222-40.485
			c4.188-28.457,28.761-50.374,58.363-50.374c23.505,0,44.223,13.586,53.696,34.491c-7.138,3.999-13.525,9.405-18.776,16.045
			c-3.426,4.332-2.692,10.621,1.64,14.047c4.332,3.427,10.622,2.691,14.047-1.64c8.288-10.479,20.692-16.488,34.033-16.488
			c23.909,0,43.361,19.452,43.361,43.361c0,16.224-8.972,30.905-23.141,38.366c-9.394-3.605-19.578-5.6-30.225-5.6
			c-5.523,0-10,4.477-10,10c0,5.523,4.477,10,10,10c35.64,0,64.634,28.995,64.634,64.635s-28.995,64.634-64.634,64.634
			c-33.192,0-60.608-25.153-64.219-57.396c7.77-1.72,15.156-5.583,21.189-11.615c3.905-3.905,3.905-10.237,0-14.143
			c-3.905-3.905-10.237-3.905-14.143,0c-9.077,9.078-23.847,9.077-32.925,0c-3.905-3.905-10.237-3.905-14.142,0
			c-3.905,3.905-3.905,10.237,0,14.142c5.701,5.701,12.612,9.469,19.913,11.317c1.884,23.079,13.053,43.56,29.772,57.694H355.5
			h-62.237c-15.033,0-27.263-12.23-27.263-27.263v-41.282c0-17.64-14.35-32.2-31.988-32.457c-8.766-0.122-17.018,3.189-23.257,9.338
			c-6.239,6.149-9.675,14.359-9.675,23.119v2.288c0,5.523,4.477,10,10,10c5.523,0,10-4.477,10-10v-2.288
			c0-3.362,1.319-6.514,3.714-8.874c2.395-2.361,5.568-3.652,8.927-3.584c6.771,0.099,12.279,5.688,12.279,12.458V375
			c0,5.523,4.477,10,10,10c5.523,0,10-4.477,10-10v-53.359c7.71,5.466,17.114,8.692,27.263,8.692h34.315
			c-1.018,2.983-1.578,6.176-1.578,9.5v51.669c-13.882,4.281-24,17.229-24,32.497c0,18.748,15.252,34,34,34s34-15.252,34-34
			c0-15.268-10.118-28.217-24-32.497v-51.669c0-5.238,4.262-9.5,9.5-9.5h71.856c46.667,0,84.634-37.967,84.634-84.634
			C511.99,217.721,498.335,192.881,477.349,177.464z M350,424c0,7.72-6.28,14-14,14c-7.72,0-14-6.28-14-14c0-7.72,6.28-14,14-14
			C343.72,410,350,416.28,350,424z"/>
	</g>
</g>
<g>
	<g>
		<path d="M222.07,278.51c-1.86-1.86-4.44-2.93-7.07-2.93s-5.21,1.07-7.07,2.93s-2.93,4.44-2.93,7.07c0,2.64,1.07,5.21,2.93,7.07
			s4.44,2.93,7.07,2.93s5.21-1.07,7.07-2.93s2.93-4.44,2.93-7.07S223.93,280.37,222.07,278.51z"/>
	</g>
</g>
<g>
	<g>
		<path d="M263.07,404.93c-1.86-1.86-4.44-2.93-7.07-2.93c-2.63,0-5.21,1.07-7.07,2.93S246,409.37,246,412s1.07,5.21,2.93,7.07
			c1.86,1.86,4.44,2.93,7.07,2.93c2.63,0,5.21-1.07,7.07-2.93S266,414.63,266,412S264.93,406.79,263.07,404.93z"/>
	</g>
</g>
<g>
	<g>
		<path d="M256,444c-18.748,0-34,15.252-34,34s15.252,34,34,34s34-15.252,34-34S274.748,444,256,444z M256,492
			c-7.72,0-14-6.28-14-14c0-7.72,6.28-14,14-14c7.72,0,14,6.28,14,14C270,485.72,263.72,492,256,492z"/>
	</g>
</g>
<g>
</g>
<g>
</g>
<g>
</g>
<g>
</g>
<g>
</g>
<g>
</g>
<g>
</g>
<g>
</g>
<g>
</g>
<g>
</g>
<g>
</g>
<g>
</g>
<g>
</g>
<g>
</g>
<g>
</g>
</svg>
