<?xml version="1.0" encoding="iso-8859-1"?>
<!-- Generator: Adobe Illustrator 19.0.0, SVG Export Plug-In . SVG Version: 6.00 Build 0)  -->
<svg version="1.1" id="Capa_1" xmlns="http://www.w3.org/2000/svg" xmlns:xlink="http://www.w3.org/1999/xlink" x="0px" y="0px"
	 viewBox="0 0 512 512" style="enable-background:new 0 0 512 512;" xml:space="preserve">
<g>
	<g>
		<path d="M339.933,14.869h-88c-5.523,0-10,4.477-10,10v72.065c0,5.524,4.477,10.001,10,10.001h88c5.523,0,10-4.477,10-10V24.869
			C349.933,19.346,345.456,14.869,339.933,14.869z M329.933,86.934h-68V34.869h68V86.934z"/>
	</g>
</g>
<g>
	<g>
		<path d="M207.933,0h-48c-5.523,0-10,4.477-10,10v48c0,5.523,4.477,10,10,10h48c5.523,0,10-4.477,10-10V10
			C217.933,4.477,213.456,0,207.933,0z M197.933,48h-28V20h28V48z"/>
	</g>
</g>
<g>
	<g>
		<path d="M175.933,92h-64c-5.523,0-10,4.477-10,10v64c0,5.523,4.477,10,10,10h64c5.523,0,10-4.477,10-10v-64
			C185.933,96.477,181.456,92,175.933,92z M165.933,156h-44v-44h44V156z"/>
	</g>
</g>
<g>
	<g>
		<path d="M453.933,196h-12v-62.065c0-5.523-4.477-10-10-10h-88c-5.523,0-10,4.477-10,10V196h-35.938v-30c0-5.523-4.477-10-10-10
			h-64c-5.523,0-10,4.477-10,10v30H186.25c-5.523,0-10,4.477-10,10s4.477,10,10,10h257.36c-2.047,31.863-13.77,64.298-33.527,92.343
			c-13.182,18.712-20.15,40.651-20.15,63.446V492h-20.267v-79.569c0-5.523-4.477-10-10-10s-10,4.477-10,10V492h-96.592v-48.388
			c0-10.021-3.911-19.434-11.013-26.505c-7.062-7.031-16.427-10.898-26.386-10.898c-0.056,0-0.111,0-0.167,0l-42.957,0.187
			c-13.637,0.081-26.382-5.212-35.987-14.844c-9.604-9.632-14.84-22.427-14.743-36.029l0.374-51.933
			c0.019-2.665-1.026-5.227-2.903-7.117c-1.877-1.891-4.432-2.955-7.097-2.955H71.943L97.794,216h5.706c5.523,0,10-4.477,10-10
			s-4.477-10-10-10H90.587c-4.304,0-8.125,2.754-9.486,6.836L48.58,300.355c-1.017,3.05-0.506,6.402,1.374,9.01
			c1.88,2.608,4.898,4.153,8.113,4.153h44.056l-0.3,41.861c-0.136,18.988,7.172,36.85,20.58,50.295
			c13.334,13.372,31.049,20.724,49.92,20.723c0.104,0,0.212,0,0.316,0l42.957-0.187c0.026,0,0.051,0,0.078,0
			c4.634,0,8.992,1.799,12.277,5.071c3.304,3.29,5.124,7.67,5.124,12.333V502c0,5.523,4.477,10,10,10h156.859
			c5.523,0,10-4.477,10-10V371.789c0-18.648,5.706-36.604,16.5-51.928c24.182-34.327,37.5-74.764,37.5-113.861
			C463.933,200.477,459.456,196,453.933,196z M277.996,196h-44v-20h44V196z M421.933,196h-68v-52.065h68V196z"/>
	</g>
</g>
<g>
	<g>
		<path d="M153.07,198.93c-1.86-1.86-4.44-2.93-7.07-2.93s-5.21,1.07-7.07,2.93S136,203.37,136,206s1.07,5.21,2.93,7.07
			S143.37,216,146,216s5.21-1.07,7.07-2.93S156,208.63,156,206S154.93,200.79,153.07,198.93z"/>
	</g>
</g>
<g>
	<g>
		<path d="M366.74,368.36c-1.86-1.86-4.44-2.93-7.07-2.93c-2.64,0-5.21,1.07-7.07,2.93c-1.87,1.86-2.93,4.44-2.93,7.07
			s1.06,5.21,2.93,7.07c1.86,1.86,4.43,2.93,7.07,2.93c2.63,0,5.21-1.07,7.07-2.93c1.86-1.86,2.93-4.44,2.93-7.07
			S368.6,370.22,366.74,368.36z"/>
	</g>
</g>
<g>
</g>
<g>
</g>
<g>
</g>
<g>
</g>
<g>
</g>
<g>
</g>
<g>
</g>
<g>
</g>
<g>
</g>
<g>
</g>
<g>
</g>
<g>
</g>
<g>
</g>
<g>
</g>
<g>
</g>
</svg>
