<?xml version="1.0" encoding="iso-8859-1"?>
<!-- Generator: Adobe Illustrator 19.0.0, SVG Export Plug-In . SVG Version: 6.00 Build 0)  -->
<svg version="1.1" id="Capa_1" xmlns="http://www.w3.org/2000/svg" xmlns:xlink="http://www.w3.org/1999/xlink" x="0px" y="0px"
	 viewBox="0 0 512 512" style="enable-background:new 0 0 512 512;" xml:space="preserve">
<g>
	<g>
		<path d="M256.574,278.51c-1.859-1.861-4.439-2.93-7.069-2.93s-5.21,1.069-7.07,2.93c-1.86,1.861-2.93,4.44-2.93,7.07
			s1.069,5.21,2.93,7.069c1.86,1.87,4.44,2.931,7.07,2.931s5.21-1.061,7.069-2.931c1.86-1.859,2.931-4.439,2.931-7.069
			S258.434,280.37,256.574,278.51z"/>
	</g>
</g>
<g>
	<g>
		<path d="M253.574,434.85c-1.859-1.86-4.439-2.93-7.069-2.93s-5.21,1.07-7.07,2.93s-2.93,4.44-2.93,7.07s1.069,5.21,2.93,7.07
			c1.86,1.859,4.44,2.93,7.07,2.93s5.21-1.07,7.069-2.93c1.86-1.86,2.931-4.44,2.931-7.07S255.434,436.71,253.574,434.85z"/>
	</g>
</g>
<g>
	<g>
		<path d="M207.004,431.923h-13.74c-4.915-33.807-34.081-59.86-69.229-59.86H64.004c-5.519,0-9.994,4.472-10,9.989h-31
			c-12.683,0-23,10.317-23,23c0,12.683,10.317,23,23,23h31v28h-31c-12.683,0-23,10.317-23,23c0,12.683,10.317,23,23,23h31.003
			c0.028,5.498,4.492,9.948,9.997,9.948h60.031c35.223,0,64.435-26.165,69.257-60.077h13.712c5.522,0,10-4.478,10-10
			C217.004,436.401,212.526,431.923,207.004,431.923z M54.004,482.052h-31c-1.654,0-3-1.346-3-3s1.346-3,3-3h31V482.052z
			 M54.004,408.052h-31c-1.654,0-3-1.346-3-3s1.346-3,3-3h31V408.052z M124.035,492H74.004v-25.948v-48v-25.989h50.031
			c27.553,0,49.969,22.416,49.969,49.969S151.588,492,124.035,492z"/>
	</g>
</g>
<g>
	<g>
		<path d="M109.338,412.833c-5.522,0-10,4.478-10,10v38.18c0,5.522,4.478,10,10,10c5.522,0,10-4.478,10-10v-38.18
			C119.338,417.311,114.859,412.833,109.338,412.833z"/>
	</g>
</g>
<g>
	<g>
		<path d="M141.337,412.833c-5.522,0-10,4.478-10,10v38.18c0,5.522,4.478,10,10,10c5.522,0,10-4.478,10-10v-38.18
			C151.337,417.311,146.859,412.833,141.337,412.833z"/>
	</g>
</g>
<g>
	<g>
		<path d="M329.262,330.333h98.098c46.668,0,84.635-37.967,84.635-84.634c0-27.979-13.655-52.818-34.642-68.235
			c14.568-11.834,23.373-29.741,23.373-49.166c0-34.938-28.424-63.36-63.361-63.36c-4.125,0-8.183,0.407-12.134,1.177
			c-5.442-12.507-14.149-23.61-25.107-31.839c-13.759-10.332-30.148-15.793-47.397-15.793c-11.82,0-23.273,2.64-33.643,7.521
			C303.791,9.4,282.491,0,259.666,0h-100.03c-37.672,0-69.409,25.893-78.355,60.815c-45.448,3.811-81.267,42.012-81.267,88.428
			c0,19.396,6.396,38.313,18.079,53.688v8.817c0,46.227,37.607,83.834,83.834,83.834h105.077c5.522,0,10-4.478,10-10
			c0-5.522-4.478-10-10-10h-35.192c6.512-7.768,10.947-17.328,12.453-27.824c11.938-3.961,20.577-15.225,20.577-28.475
			c0-16.542-13.458-30-30-30s-30,13.458-30,30c0,12.739,7.986,23.642,19.211,27.985c-3.444,16.157-17.822,28.315-34.991,28.315
			h-27.135c-31.443,0-57.631-22.858-62.865-52.827c3.626,2.46,7.423,4.657,11.353,6.543c1.396,0.67,2.868,0.986,4.319,0.986
			c3.726,0,7.303-2.092,9.022-5.676c2.39-4.979,0.29-10.953-4.689-13.342c-8.822-4.233-16.803-10.454-23.1-17.993
			c-0.104-0.133-0.211-0.264-0.322-0.392c-10.08-12.254-15.632-27.735-15.632-43.639c0-34.513,25.568-63.157,58.754-68.012
			c0.076,17.358,5.687,34.089,15.956,47.89c-3.03,5.272-4.773,11.374-4.773,17.878c0,19.851,16.149,36,36,36
			c19.851,0,36-16.149,36-36s-16.149-36-36-36c-6.01,0-11.675,1.488-16.661,4.103c-6.834-10.039-10.531-21.928-10.531-34.227
			C98.76,47.309,126.069,20,159.637,20h100.03c15.963,0,30.924,6.129,42.202,17.023c-3.302,2.779-6.386,5.845-9.224,9.17
			c-2.719-0.813-5.597-1.256-8.577-1.256c-16.542,0-30,13.458-30,30s13.458,30,30,30s30-13.458,30-30
			c0-6.26-1.93-12.076-5.222-16.89c11.12-12.37,27.003-19.565,43.88-19.565c23.514,0,44.239,13.595,53.708,34.515
			c-9.999,5.592-18.438,13.872-24.23,24.117c-0.833-0.07-1.673-0.114-2.523-0.114c-16.542,0-30,13.458-30,30s13.458,30,30,30
			s30-13.458,30-30c0-8.457-3.523-16.102-9.172-21.561c7.833-12.625,21.708-20.502,36.856-20.502
			c23.909,0,43.361,19.451,43.361,43.36c0,16.224-8.972,30.905-23.141,38.367c-9.394-3.605-19.578-5.6-30.225-5.6
			c-5.522,0-10,4.478-10,10c0,5.522,4.478,10,10,10c35.64,0,64.635,28.995,64.635,64.635s-28.995,64.634-64.635,64.634
			c-19.9,0-38.571-9.232-50.731-24.597c7.875-5.413,13.051-14.48,13.051-24.736c0-16.542-13.458-30-30-30s-30,13.458-30,30
			c0,15.192,11.354,27.774,26.02,29.728c4.699,7.463,10.477,14.05,17.066,19.605h-43.504c-15.032,0-27.263-12.23-27.263-27.263
			c0-0.401-0.03-0.794-0.076-1.183v-54.16c11.679-4.106,20.077-15.24,20.077-28.305c0-16.542-13.458-30-30-30s-30,13.458-30,30
			c0,13.008,8.324,24.105,19.924,28.254v127.245c0,22.608,18.394,41.002,41.002,41.002h97.079c9.925,0,18,8.075,18,18
			s-8.075,18-18,18H288.171c-5.522,0-10,4.478-10,10c0,5.522,4.478,10,10,10h131.833c20.953,0,38-17.047,38-38s-17.047-38-38-38
			h-97.079c-11.58,0-21.002-9.422-21.002-21.002v-33.334C309.647,327.085,319.079,330.333,329.262,330.333z M174.842,209.282
			c5.514,0,10,4.486,10,10s-4.486,10-10,10s-10-4.486-10-10S169.328,209.282,174.842,209.282z M125.952,131c8.822,0,16,7.178,16,16
			s-7.178,16-16,16c-8.822,0-16-7.178-16-16S117.129,131,125.952,131z M284.067,84.938c-5.514,0-10-4.486-10-10
			c0-5.514,4.486-10,10-10c1.558,0,3.028,0.368,4.344,1.007c0.451,0.454,0.95,0.873,1.501,1.245
			c0.402,0.272,0.821,0.499,1.245,0.705c1.797,1.809,2.91,4.298,2.91,7.043C294.067,80.451,289.582,84.938,284.067,84.938z
			 M379.681,137c-5.514,0-10-4.486-10-10c0-5.514,4.486-10,10-10c5.514,0,10,4.486,10,10S385.194,137,379.681,137z M359.681,271
			c-5.514,0-10-4.486-10-10c0-5.514,4.486-10,10-10c5.514,0,10,4.486,10,10C369.681,266.514,365.194,271,359.681,271z
			 M291.999,209.422c-5.514,0-10-4.486-10-10c0-5.514,4.486-10,10-10c5.514,0,10,4.486,10,10
			C301.999,204.936,297.514,209.422,291.999,209.422z"/>
	</g>
</g>
<g>
</g>
<g>
</g>
<g>
</g>
<g>
</g>
<g>
</g>
<g>
</g>
<g>
</g>
<g>
</g>
<g>
</g>
<g>
</g>
<g>
</g>
<g>
</g>
<g>
</g>
<g>
</g>
<g>
</g>
</svg>
