<?xml version="1.0" encoding="iso-8859-1"?>
<!-- Generator: Adobe Illustrator 19.0.0, SVG Export Plug-In . SVG Version: 6.00 Build 0)  -->
<svg version="1.1" id="Capa_1" xmlns="http://www.w3.org/2000/svg" xmlns:xlink="http://www.w3.org/1999/xlink" x="0px" y="0px"
	 viewBox="0 0 497.836 497.836" style="enable-background:new 0 0 497.836 497.836;" xml:space="preserve">
<g>
	<g>
		<g>
			<path d="M285.416,390.166h-71.529c-40.659,0-74.541,33.129-74.541,74.541v25.6c0,4.518,3.012,7.529,7.529,7.529h204.8
				c4.518,0,7.529-3.012,7.529-7.529v-26.353C359.957,423.295,326.827,390.166,285.416,390.166z M344.898,482.778H154.404v-18.823
				c0-32.376,26.353-59.482,59.482-59.482h71.529c32.376,0,59.482,26.353,59.482,59.482V482.778z"/>
			<path d="M188.286,314.872c0,36.894,29.365,66.259,66.259,66.259s66.259-30.118,66.259-66.259
				c0-36.141-29.365-66.259-66.259-66.259S188.286,277.978,188.286,314.872z M254.545,263.672c28.612,0,51.2,23.341,51.2,51.2
				c0,28.612-23.341,51.2-51.2,51.2c-28.612,0-51.2-23.341-51.2-51.2C203.345,286.26,225.933,263.672,254.545,263.672z"/>
			<path d="M146.122,246.354l3.012-23.341c9.788-2.259,18.824-6.023,27.106-11.294l18.071,13.553
				c3.012,2.259,8.282,2.259,10.541-0.753l18.824-18.823c3.012-3.012,3.012-6.776,0.753-9.788l-14.306-18.823
				c5.271-8.282,9.035-17.318,11.294-27.106l23.341-3.012c3.765-0.753,6.776-3.765,6.776-7.529v-26.353
				c0-3.765-3.012-6.776-6.776-7.529l-23.341-3.012c-2.259-9.788-6.023-18.824-11.294-27.106l13.553-18.071
				c2.259-3.012,2.259-7.529-0.753-10.541l-18.823-18.824c-3.012-3.012-6.776-3.012-9.788-0.753l-18.071,14.306
				c-8.282-5.271-17.318-9.035-27.106-11.294l-3.012-23.341c-0.753-3.765-3.765-6.776-7.529-6.776h-26.353
				c-3.765,0-6.776,3.012-7.529,6.776l-3.012,23.341c-9.788,2.259-18.823,6.024-27.106,11.294L55.769,28.001
				c-3.012-2.259-6.776-2.259-9.788,0L27.157,47.578c-2.259,2.259-3.012,6.776-0.753,9.788L40.71,76.189
				c-5.271,8.282-9.035,17.318-11.294,27.106l-22.588,3.012c-3.765,0-6.776,3.012-6.776,6.776v26.353
				c0,3.765,3.012,6.776,6.776,7.529l23.341,3.012c2.259,9.788,6.024,18.824,11.294,27.106L26.404,196.66
				c-2.259,3.012-2.259,7.529,0.753,9.788l18.823,18.824c3.012,3.012,6.776,3.012,9.788,0.753l18.071-14.306
				c8.282,5.271,17.318,9.035,27.106,11.294l3.012,23.341c0.753,3.765,3.765,6.776,7.529,6.776h26.353
				C142.357,252.378,145.369,250.119,146.122,246.354z M134.827,215.484l-3.012,21.835h-13.553l-3.012-21.835
				c-0.753-3.012-3.012-6.024-6.024-6.776c-11.294-2.259-21.835-6.776-31.624-12.8c-3.012-1.506-6.023-1.506-9.035,0L51.251,209.46
				l-9.788-9.788l12.8-17.318c2.259-2.259,2.259-6.776,0-9.035c-6.024-9.788-10.541-20.329-12.8-31.624
				c-0.753-3.012-3.012-5.271-6.776-6.023l-19.576-2.259V119.86l21.835-3.012c3.012-0.753,6.024-3.012,6.776-6.023
				c2.259-11.294,6.776-21.835,12.8-31.624c1.506-3.012,1.506-6.024,0-9.035L42.969,52.848l9.788-9.788l17.318,12.8
				c2.259,2.259,6.776,2.259,9.788,0c9.035-6.024,19.576-10.541,30.871-12.8c3.012-0.753,5.271-3.012,6.023-6.776l1.506-20.329
				h13.553l3.012,21.835c0.753,3.012,3.012,6.024,6.023,6.776c11.294,2.259,21.835,6.776,31.624,12.8
				c3.012,1.506,6.023,1.506,9.035,0l17.318-13.553l9.788,9.788l-13.553,17.318c-2.259,2.259-2.259,6.024,0,9.035
				c6.776,9.788,10.541,20.329,12.8,31.624c0.753,3.012,3.012,5.271,6.776,6.023l21.835,3.012v13.553l-22.588,2.259
				c-3.012,0.753-6.023,3.012-6.776,6.023c-2.259,11.294-6.776,21.835-12.8,31.624c-1.506,3.012-1.506,6.024,0,9.035l13.553,17.318
				l-9.788,9.788L181.51,196.66c-2.259-2.259-6.023-2.259-9.035,0c-9.788,6.776-20.329,10.541-31.624,12.8
				C137.839,210.213,135.58,212.472,134.827,215.484z"/>
			<path d="M125.039,62.636c-35.388,0-64,28.612-64,64s28.612,64,64,64s64-28.612,64-64S160.427,62.636,125.039,62.636z
				 M125.039,175.578c-27.106,0-48.941-21.835-48.941-48.941c0-27.106,21.835-48.941,48.941-48.941s48.941,21.835,48.941,48.941
				C173.98,153.742,152.145,175.578,125.039,175.578z"/>
			<path d="M401.369,92.001c4.518,0,7.529-3.012,7.529-7.529V64.895c0-4.518-3.012-7.529-7.529-7.529s-7.529,3.012-7.529,7.529
				v19.576C393.839,88.989,397.604,92.001,401.369,92.001z"/>
			<path d="M430.733,95.013l12.8-14.306c3.012-3.012,2.259-7.529-0.753-10.541c-3.012-3.012-7.529-2.259-10.541,0.753l-12.8,14.306
				c-3.012,3.012-2.259,7.529,0.753,10.541C423.957,98.778,428.474,98.025,430.733,95.013z"/>
			<path d="M381.792,96.519c3.012-3.012,3.765-7.529,0.753-10.541l-12.047-14.306c-3.012-3.012-7.529-3.765-10.541-0.753
				c-3.012,3.012-3.765,7.529-0.753,10.541l12.047,14.306C374.263,98.778,378.78,98.778,381.792,96.519z"/>
			<path d="M396.098,321.648h12.047c11.294,0,20.329-8.282,22.588-18.824h9.788c4.518,0,7.529-3.765,7.529-7.529
				c0-4.518-3.012-7.529-7.529-7.529h-9.035v-9.035h20.329c6.776,0,12.047-5.271,12.047-12.047v-34.635
				c0-6.776-5.271-12.047-12.047-12.047h-6.023c2.259-19.576,11.294-38.4,25.6-53.459c17.318-18.824,27.106-42.918,26.353-68.518
				c0-55.718-45.929-100.894-101.647-97.882c-46.682,3.012-85.082,41.412-89.6,88.847c-2.259,29.365,7.529,57.224,27.106,78.306
				c14.306,15.059,23.341,33.882,25.6,53.459h-6.023c-6.776,0-12.047,5.271-12.047,12.047v34.635
				c0,6.776,5.271,12.047,12.047,12.047h20.329v9.035h-9.035c-4.518,0-7.529,3.765-7.529,7.529c0,4.518,3.012,7.529,7.529,7.529
				h9.788C375.769,314.119,384.804,321.648,396.098,321.648z M416.427,298.307c0,4.518-3.765,8.282-8.282,9.035h-12.047
				c-4.518,0-8.282-3.765-8.282-8.282v-18.824l28.612-0.753V298.307z M344.145,157.507c-17.318-17.318-25.6-41.412-23.341-66.259
				c3.765-40.659,36.141-73.035,75.294-75.294c1.506,0,3.012,0,4.518,0c45.176,0,81.318,36.894,81.318,82.823
				c0,21.835-8.282,42.165-22.588,57.977c-16.565,18.071-27.106,40.659-29.365,64h-21.082v-74.541
				c9.035-3.012,15.812-12.047,15.812-21.835c0-12.8-10.541-23.341-23.341-23.341s-23.341,10.541-23.341,23.341
				c0,10.541,6.776,18.824,15.812,21.835v74.541h-19.576C372.004,197.413,361.463,174.825,344.145,157.507z M401.369,132.66
				c-4.518,0-8.282-3.765-8.282-8.282s3.765-8.282,8.282-8.282s8.282,3.765,8.282,8.282S405.886,132.66,401.369,132.66z
				 M355.439,264.425v-27.859c75.294-0.753,85.835-0.753,92.612-0.753v27.859C378.78,264.425,356.945,264.425,355.439,264.425z"/>
			<path d="M447.298,337.46c-3.765-3.012-9.035-3.012-11.294,0.753l-28.612,29.365c-3.012,3.012-3.012,7.529,0,10.541
				c3.012,3.012,7.529,3.012,10.541,0l16.565-16.565v89.6h-57.977c-4.518,0-7.529,3.012-7.529,7.529s3.012,7.529,7.529,7.529h66.259
				c4.518,0,7.529-3.012,7.529-7.529v-97.882l15.812,16.565c3.012,3.012,7.529,3.012,10.541,0c3.012-3.012,3.012-7.529,0-10.541
				L447.298,337.46z"/>
			<path d="M117.51,451.154H59.533V316.378l16.565,16.565c3.012,3.012,7.529,3.012,10.541,0c3.012-3.012,3.012-7.529,0-10.541
				l-28.612-29.365c-2.259-3.765-7.529-4.518-11.294-0.753l-28.612,30.118c-3.012,3.012-3.012,7.529,0,10.541
				c3.012,3.012,7.529,3.012,10.541,0l15.812-16.565v142.306c0,4.518,3.012,7.529,7.529,7.529h66.259
				c4.518,0,7.529-3.012,7.529-7.529S122.027,451.154,117.51,451.154z"/>
		</g>
	</g>
</g>
<g>
</g>
<g>
</g>
<g>
</g>
<g>
</g>
<g>
</g>
<g>
</g>
<g>
</g>
<g>
</g>
<g>
</g>
<g>
</g>
<g>
</g>
<g>
</g>
<g>
</g>
<g>
</g>
<g>
</g>
</svg>
