<?xml version="1.0" encoding="iso-8859-1"?>
<!-- Generator: Adobe Illustrator 19.0.0, SVG Export Plug-In . SVG Version: 6.00 Build 0)  -->
<svg version="1.1" id="Capa_1" xmlns="http://www.w3.org/2000/svg" xmlns:xlink="http://www.w3.org/1999/xlink" x="0px" y="0px"
	 viewBox="0 0 496 496" style="enable-background:new 0 0 496 496;" xml:space="preserve">
<g>
	<g>
		<g>
			<rect x="192" y="400" width="112" height="16"/>
			<path d="M464,456c0,13.232-10.768,24-24,24H272v-48h-16v64h184c22.056,0,40-17.944,40-40V288h-16V456z"/>
			<path d="M472,224c-13.232,0-24,10.768-24,24s10.768,24,24,24s24-10.768,24-24S485.232,224,472,224z M472,256
				c-4.408,0-8-3.592-8-8c0-4.408,3.592-8,8-8c4.408,0,8,3.592,8,8S476.408,256,472,256z"/>
			<path d="M432,440v-88h-16v88c0,4.416-3.592,8-8,8H304v-16h-16v32h120C421.232,464,432,453.232,432,440z"/>
			<path d="M400,312c0,13.232,10.768,24,24,24s24-10.768,24-24s-10.768-24-24-24S400,298.768,400,312z M432,312c0,4.416-3.592,8-8,8
				c-4.408,0-8-3.584-8-8c0-4.416,3.592-8,8-8C428.408,304,432,307.584,432,312z"/>
			<path d="M224,480H56c-13.232,0-24-10.768-24-24V288H16v168c0,22.056,17.944,40,40,40h184v-64h-16V480z"/>
			<path d="M48,248c0-13.232-10.768-24-24-24S0,234.768,0,248s10.768,24,24,24S48,261.232,48,248z M16,248c0-4.408,3.592-8,8-8
				s8,3.592,8,8s-3.592,8-8,8S16,252.408,16,248z"/>
			<path d="M64,352v88c0,13.232,10.768,24,24,24h120v-32h-16v16H88c-4.408,0-8-3.584-8-8v-88H64z"/>
			<path d="M72,336c13.232,0,24-10.768,24-24s-10.768-24-24-24s-24,10.768-24,24S58.768,336,72,336z M72,304c4.408,0,8,3.584,8,8
				c0,4.416-3.592,8-8,8s-8-3.584-8-8C64,307.584,67.592,304,72,304z"/>
			<path d="M81.488,210.992C80.608,215.264,80,219.592,80,224c0,29.312,20.256,54.808,48.104,61.96
				C128.08,286.648,128,287.312,128,288c0,29.752,20.44,54.76,48,61.896V384h144v-34.104c27.56-7.136,48-32.136,48-61.896
				c0-0.688-0.08-1.352-0.104-2.04C395.744,278.808,416,253.312,416,224c0-4.4-0.608-8.736-1.488-13.008
				C429.96,199.304,440,180.824,440,160c0-26.12-16.216-49.704-40.12-59.352c-1.344-19.168-14.184-35.632-32.152-41.896
				C365.048,25.92,337.52,0,304,0c-24.064,0-45.072,13.352-56,33.04C237.072,13.352,216.064,0,192,0
				c-33.504,0-61.024,25.888-63.728,58.704c-17.792,6.2-30.816,22.56-32.104,42.12C72.304,110.48,56,133.904,56,160
				C56,180.824,66.04,199.304,81.488,210.992z M304,368H192v-16c24.064,0,45.072-13.352,56-33.04
				c10.928,19.688,31.936,33.04,56,33.04V368z M97.952,117.456C103.792,137.384,122.208,152,144,152v-16c-17.648,0-32-14.352-32-32
				s14.352-32,32-32s32,14.352,32,32h16c0-26.224-21.144-47.568-47.28-47.96C148.528,33.352,168.248,16,192,16
				c26.472,0,48,21.528,48,48h16c0-26.472,21.528-48,48-48s48,21.528,48,48s-21.528,48-48,48v16
				c31.256,0,57.312-22.544,62.864-52.216c10.256,5.44,17.128,16.192,17.088,28.4c-0.072,0.544-0.144,1.096-0.176,1.664
				l-0.352,6.336l6.088,1.784C409.824,119.92,424,138.848,424,160c0,26.472-21.528,48-48,48c-13.008,0-25.192-5.12-34.296-14.416
				l-11.432,11.192C342.408,217.168,358.656,224,376,224c8.368,0,16.336-1.656,23.672-4.592c0.144,1.528,0.328,3.048,0.328,4.592
				c0,21.472-14.52,40.096-34.632,45.96C357.552,243.432,333.024,224,304,224v16c26.472,0,48,21.528,48,48s-21.528,48-48,48
				s-48-21.528-48-48h-16c0,26.472-21.528,48-48,48s-48-21.528-48-48s21.528-48,48-48v-16c-29.024,0-53.552,19.432-61.368,45.96
				C110.52,264.096,96,245.472,96,224c0-1.544,0.184-3.064,0.328-4.592C103.664,222.344,111.632,224,120,224
				c22.648,0,43.152-11.592,54.856-31.016l-13.704-8.256C152.368,199.304,136.992,208,120,208c-26.472,0-48-21.528-48-48
				C72,141.976,82.352,125.6,97.952,117.456z"/>
			<rect x="368" y="136" width="16" height="16"/>
			<rect x="208" y="208" width="16" height="16"/>
			<rect x="272" y="272" width="16" height="16"/>
			<rect x="176" y="304" width="16" height="16"/>
			<rect x="288" y="56" width="16" height="16"/>
			<rect x="176" y="32" width="16" height="16"/>
			<rect x="192" y="120" width="16" height="16"/>
			<rect x="104" y="168" width="16" height="16"/>
			<rect x="256" y="168" width="16" height="16"/>
		</g>
	</g>
</g>
<g>
</g>
<g>
</g>
<g>
</g>
<g>
</g>
<g>
</g>
<g>
</g>
<g>
</g>
<g>
</g>
<g>
</g>
<g>
</g>
<g>
</g>
<g>
</g>
<g>
</g>
<g>
</g>
<g>
</g>
</svg>
