<?xml version="1.0" encoding="UTF-8" standalone="no"?>
<!-- Created with Inkscape (http://www.inkscape.org/) -->

<svg
   xmlns:osb="http://www.openswatchbook.org/uri/2009/osb"
   xmlns:dc="http://purl.org/dc/elements/1.1/"
   xmlns:cc="http://creativecommons.org/ns#"
   xmlns:rdf="http://www.w3.org/1999/02/22-rdf-syntax-ns#"
   xmlns:svg="http://www.w3.org/2000/svg"
   xmlns="http://www.w3.org/2000/svg"
   xmlns:sodipodi="http://sodipodi.sourceforge.net/DTD/sodipodi-0.dtd"
   xmlns:inkscape="http://www.inkscape.org/namespaces/inkscape"
   width="720"
   height="720"
   viewBox="0 0 190.5 190.5"
   version="1.1"
   id="svg8"
   inkscape:version="0.92.2 (5c3e80d, 2017-08-06)"
   sodipodi:docname="logo.svg"
   inkscape:export-filename="/home/oleman/gimet/src/images/logo.svg.png"
   inkscape:export-xdpi="96"
   inkscape:export-ydpi="96">
  <defs
     id="defs2">
    <inkscape:path-effect
       is_visible="true"
       id="path-effect4664"
       effect="spiro" />
    <inkscape:path-effect
       is_visible="true"
       id="path-effect4660"
       effect="spiro" />
    <inkscape:path-effect
       is_visible="true"
       id="path-effect4656"
       effect="spiro" />
    <inkscape:path-effect
       is_visible="true"
       id="path-effect4652"
       effect="spiro" />
    <inkscape:path-effect
       is_visible="true"
       id="path-effect4648"
       effect="spiro" />
    <inkscape:path-effect
       effect="spiro"
       id="path-effect4644"
       is_visible="true" />
    <inkscape:path-effect
       is_visible="true"
       id="path-effect4640"
       effect="spiro" />
    <inkscape:path-effect
       effect="spiro"
       id="path-effect4636"
       is_visible="true" />
    <inkscape:path-effect
       effect="spiro"
       id="path-effect4632"
       is_visible="true" />
    <inkscape:path-effect
       effect="spiro"
       id="path-effect4628"
       is_visible="true" />
    <inkscape:path-effect
       effect="spiro"
       id="path-effect4624"
       is_visible="true" />
    <inkscape:path-effect
       effect="spiro"
       id="path-effect4620"
       is_visible="true" />
    <inkscape:path-effect
       effect="spiro"
       id="path-effect4616"
       is_visible="true" />
    <inkscape:path-effect
       effect="spiro"
       id="path-effect4610"
       is_visible="true" />
    <inkscape:path-effect
       effect="spiro"
       id="path-effect4606"
       is_visible="true" />
    <inkscape:path-effect
       is_visible="true"
       id="path-effect4602"
       effect="spiro" />
    <inkscape:path-effect
       effect="spiro"
       id="path-effect4598"
       is_visible="true" />
    <inkscape:path-effect
       is_visible="true"
       id="path-effect4594"
       effect="spiro" />
    <inkscape:path-effect
       is_visible="true"
       id="path-effect4590"
       effect="spiro" />
    <inkscape:path-effect
       effect="spiro"
       id="path-effect4586"
       is_visible="true" />
    <inkscape:path-effect
       is_visible="true"
       id="path-effect4581"
       effect="spiro" />
    <inkscape:path-effect
       effect="spiro"
       id="path-effect4577"
       is_visible="true" />
    <inkscape:path-effect
       effect="spiro"
       id="path-effect4573"
       is_visible="true" />
    <inkscape:path-effect
       is_visible="true"
       id="path-effect4569"
       effect="spiro" />
    <inkscape:path-effect
       effect="spiro"
       id="path-effect4565"
       is_visible="true" />
    <inkscape:path-effect
       is_visible="true"
       id="path-effect4561"
       effect="spiro" />
    <inkscape:path-effect
       effect="spiro"
       id="path-effect4557"
       is_visible="true" />
    <inkscape:path-effect
       effect="spiro"
       id="path-effect4544"
       is_visible="true" />
    <inkscape:path-effect
       effect="spiro"
       id="path-effect843"
       is_visible="true" />
    <linearGradient
       id="linearGradient4526"
       osb:paint="solid">
      <stop
         style="stop-color:#ffffff;stop-opacity:0;"
         offset="0"
         id="stop4524" />
    </linearGradient>
  </defs>
  <sodipodi:namedview
     id="base"
     pagecolor="#ffffff"
     bordercolor="#666666"
     borderopacity="1.0"
     inkscape:pageopacity="0"
     inkscape:pageshadow="2"
     inkscape:zoom="1"
     inkscape:cx="218.01933"
     inkscape:cy="327.79206"
     inkscape:document-units="px"
     inkscape:current-layer="layer2"
     showgrid="false"
     inkscape:snap-bbox="true"
     showborder="true"
     units="px"
     inkscape:pagecheckerboard="true"
     width="720px"
     showguides="false"
     inkscape:guide-bbox="true"
     inkscape:window-width="1680"
     inkscape:window-height="991"
     inkscape:window-x="0"
     inkscape:window-y="27"
     inkscape:window-maximized="1"
     inkscape:measure-start="354.382,460.586"
     inkscape:measure-end="365.431,460.586">
    <sodipodi:guide
       position="95.25,95.25"
       orientation="0,1"
       id="guide6184"
       inkscape:locked="false"
       inkscape:label=""
       inkscape:color="rgb(0,0,255)" />
    <sodipodi:guide
       position="95.25,95.25"
       orientation="1,0"
       id="guide6186"
       inkscape:locked="false"
       inkscape:label=""
       inkscape:color="rgb(0,0,255)" />
  </sodipodi:namedview>
  <metadata
     id="metadata5">
    <rdf:RDF>
      <cc:Work
         rdf:about="">
        <dc:format>image/svg+xml</dc:format>
        <dc:type
           rdf:resource="http://purl.org/dc/dcmitype/StillImage" />
        <dc:title></dc:title>
        <cc:license
           rdf:resource="" />
      </cc:Work>
    </rdf:RDF>
  </metadata>
  <g
     inkscape:label="Border white"
     inkscape:groupmode="layer"
     id="layer1"
     transform="translate(0,-106.5)"
     style="display:inline">
    <path
       style="opacity:1;fill:#c2c2c2;fill-opacity:1;stroke:#ffffff;stroke-width:4.15748024;stroke-miterlimit:4;stroke-dasharray:none;stroke-opacity:1"
       d="M 360,64 A 296,296 0 0 0 64,360 296,296 0 0 0 360,656 296,296 0 0 0 656,360 296,296 0 0 0 587.01367,170.12891 57.897292,58.892661 0 0 1 546.69727,186.83594 57.897292,58.892661 0 0 1 488.80078,127.94336 57.897292,58.892661 0 0 1 497.03711,97.794922 296,296 0 0 0 360,64 Z"
       id="path6188"
       inkscape:connector-curvature="0"
       transform="matrix(0.26458333,0,0,0.26458333,0,106.5)" />
    <ellipse
       style="opacity:1;fill:#ffffff;fill-opacity:0;stroke:#ffffff;stroke-width:1.10000002;stroke-miterlimit:4;stroke-dasharray:none;stroke-opacity:1"
       id="path6190"
       cx="144.64717"
       cy="140.35167"
       rx="15.318659"
       ry="15.582017" />
    <ellipse
       ry="10.191083"
       rx="10.018839"
       cy="201.89021"
       cx="16.788116"
       id="ellipse6192"
       style="opacity:1;fill:#ffffff;fill-opacity:1;stroke:#ffffff;stroke-width:1.10000002;stroke-miterlimit:4;stroke-dasharray:none;stroke-opacity:1" />
    <ellipse
       style="opacity:1;fill:#ffffff;fill-opacity:1;stroke:#ffffff;stroke-width:1.10000002;stroke-miterlimit:4;stroke-dasharray:none;stroke-opacity:1"
       id="ellipse6194"
       cx="153.04854"
       cy="254.01312"
       rx="10.018839"
       ry="10.191083" />
  </g>
  <g
     style="display:none"
     transform="translate(0,-106.5)"
     id="g4798"
     inkscape:groupmode="layer"
     inkscape:label="Border black">
    <path
       transform="matrix(0.26458333,0,0,0.26458333,0,106.5)"
       inkscape:connector-curvature="0"
       id="path4790"
       d="M 360,64 A 296,296 0 0 0 64,360 296,296 0 0 0 360,656 296,296 0 0 0 656,360 296,296 0 0 0 587.01367,170.12891 57.897292,58.892661 0 0 1 546.69727,186.83594 57.897292,58.892661 0 0 1 488.80078,127.94336 57.897292,58.892661 0 0 1 497.03711,97.794922 296,296 0 0 0 360,64 Z"
       style="opacity:1;fill:#c2c2c2;fill-opacity:1;stroke:#2d323b;stroke-width:4.15748024;stroke-miterlimit:4;stroke-dasharray:none;stroke-opacity:1" />
    <ellipse
       ry="15.582017"
       rx="15.318659"
       cy="140.35167"
       cx="144.64717"
       id="ellipse4792"
       style="opacity:1;fill:#000000;fill-opacity:0;stroke:#2d323b;stroke-width:1.10000002;stroke-miterlimit:4;stroke-dasharray:none;stroke-opacity:1" />
    <ellipse
       style="opacity:1;fill:#2d323b;fill-opacity:1;stroke:#2d323b;stroke-width:1.10000002;stroke-miterlimit:4;stroke-dasharray:none;stroke-opacity:1"
       id="ellipse4794"
       cx="16.788116"
       cy="201.89021"
       rx="10.018839"
       ry="10.191083" />
    <ellipse
       ry="10.191083"
       rx="10.018839"
       cy="254.01312"
       cx="153.04854"
       id="ellipse4796"
       style="opacity:1;fill:#2d323b;fill-opacity:1;stroke:#2d323b;stroke-width:1.10000002;stroke-miterlimit:4;stroke-dasharray:none;stroke-opacity:1" />
  </g>
  <g
     inkscape:groupmode="layer"
     id="layer2"
     inkscape:label="Brain"
     transform="translate(0,-106.5)"
     style="display:inline">
    <path
       style="color:#000000;font-style:normal;font-variant:normal;font-weight:normal;font-stretch:normal;font-size:medium;line-height:normal;font-family:sans-serif;font-variant-ligatures:normal;font-variant-position:normal;font-variant-caps:normal;font-variant-numeric:normal;font-variant-alternates:normal;font-feature-settings:normal;text-indent:0;text-align:start;text-decoration:none;text-decoration-line:none;text-decoration-style:solid;text-decoration-color:#000000;letter-spacing:normal;word-spacing:normal;text-transform:none;writing-mode:lr-tb;direction:ltr;text-orientation:mixed;dominant-baseline:auto;baseline-shift:baseline;text-anchor:start;white-space:normal;shape-padding:0;clip-rule:nonzero;display:inline;overflow:visible;visibility:visible;opacity:1;isolation:auto;mix-blend-mode:normal;color-interpolation:sRGB;color-interpolation-filters:linearRGB;solid-color:#000000;solid-opacity:1;vector-effect:none;fill:#2d323b;fill-opacity:1;fill-rule:nonzero;stroke:none;stroke-width:2.4000001;stroke-linecap:butt;stroke-linejoin:miter;stroke-miterlimit:4;stroke-dasharray:none;stroke-dashoffset:0;stroke-opacity:1;color-rendering:auto;image-rendering:auto;shape-rendering:auto;text-rendering:auto;enable-background:accumulate"
       d="m 104.43508,142.36758 c -0.52919,-0.007 -1.05873,0.001 -1.5875,0.0232 -2.11507,0.0875 -4.220012,0.40116 -6.269348,0.93948 h -0.02119 v 116.78305 h 5.19e-4 l -5.19e-4,0.002 c 4.097638,1.21417 8.485548,1.39672 12.669478,0.52503 2.95117,-0.61484 5.82753,-1.75977 8.33024,-3.5233 1.19132,-0.83946 2.29097,-1.82064 3.25717,-2.92178 5.54288,-1.65177 10.64845,-4.70938 14.71742,-8.82014 3.99487,-4.0359 6.96154,-9.06026 8.57881,-14.50195 4.33734,-3.19872 7.69851,-7.67845 9.54051,-12.74651 2.32385,-6.39388 2.16254,-13.61702 -0.43459,-19.90318 1.26205,-3.83426 1.50453,-8.00351 0.58861,-11.95793 -1.13359,-4.89418 -3.97729,-9.3395 -7.92614,-12.43748 -1.69254,-5.29187 -4.66889,-10.15884 -8.6186,-14.06839 -4.11772,-4.07585 -9.26663,-7.08045 -14.83577,-8.67441 -1.15525,-2.00618 -2.81064,-3.69885 -4.70153,-4.98367 -2.58308,-1.75517 -5.56064,-2.76535 -8.54882,-3.29127 -1.56509,-0.27547 -3.15117,-0.42315 -4.73873,-0.44287 z m -0.58032,2.40089 c 1.64272,-0.014 3.28641,0.12061 4.90305,0.40514 2.73808,0.4819 5.38952,1.39991 7.61557,2.91248 2.21748,1.50673 4.01749,3.65589 4.84158,6.11694 0.90273,2.69597 0.59654,5.8236 -0.81235,8.29303 -1.26234,2.2126 -3.43171,3.92954 -5.8689,4.69119 -2.61228,-2.61184 -6.362,-3.9572 -10.03919,-3.59719 l 0.23409,2.38848 c 2.94366,-0.2882 6.05125,0.83239 8.13491,2.9316 1.78973,1.80307 2.86942,4.34492 2.92385,6.88485 0.0545,2.53991 -0.91433,5.12559 -2.62515,7.00371 l 1.77352,1.61541 c 2.139,-2.34814 3.31805,-5.49619 3.24994,-8.67183 -0.0501,-2.33665 -0.77676,-4.62762 -2.04743,-6.57376 2.65137,-1.0487 4.92754,-2.99234 6.34845,-5.48286 1.66393,-2.91649 2.08509,-6.46116 1.17462,-9.68572 4.4488,1.58121 8.55512,4.14457 11.9093,7.46466 3.84876,3.80963 6.71936,8.61894 8.24602,13.81466 l 0.005,-0.002 c 3.80465,2.75904 6.58247,6.95255 7.64294,11.53108 1.38506,5.97983 -0.24851,12.64646 -4.24367,17.30644 -3.54511,4.13506 -8.93746,6.67385 -14.38413,6.87555 1.00311,-3.56767 0.59228,-7.49141 -1.17875,-10.7642 -2.0138,-3.72142 -5.69292,-6.43256 -9.84382,-7.25382 l -0.46664,2.35541 c 3.41957,0.67658 6.54049,2.97519 8.19948,6.04097 1.65901,3.06578 1.87823,6.93511 0.57413,10.16786 -1.13553,2.81487 -3.41952,5.19078 -6.1877,6.43578 -2.7682,1.24498 -6.06047,1.3773 -8.91988,0.35915 l -0.80459,2.25981 c 3.46221,1.23279 7.35715,1.07594 10.70891,-0.4315 3.02728,-1.36151 5.52016,-3.78654 6.98817,-6.7541 6.48031,0.0766 12.90707,-2.79687 17.13487,-7.72822 1.09443,-1.27654 2.02836,-2.67855 2.79572,-4.16511 1.52081,5.12923 1.38368,10.76973 -0.44235,15.79386 -1.76781,4.86396 -5.09783,9.16987 -9.36119,12.10366 l 0.003,0.005 -0.003,-0.001 c -1.44393,5.35426 -4.30553,10.33227 -8.20673,14.27355 -3.03804,3.06926 -6.713,5.51237 -10.71148,7.1515 0.12033,-0.23253 0.23727,-0.46744 0.34624,-0.70642 1.59326,-3.49449 1.85343,-7.5398 0.7245,-11.21068 l -2.29288,0.70487 c 0.95106,3.09251 0.72471,6.56817 -0.61753,9.51208 -1.09227,2.39567 -2.91139,4.47395 -5.1015,6.0172 -2.1935,1.54565 -4.7642,2.57829 -7.43727,3.13521 -3.21115,0.66901 -6.57029,0.64908 -9.779244,-0.0408 v -30.54335 c 1.312444,1.84382 3.097864,3.3427 5.164024,4.29276 2.8581,1.31421 6.16372,1.54299 9.17566,0.63511 l -0.6935,-2.29702 c -2.4346,0.73387 -5.16988,0.54296 -7.48016,-0.51935 -2.31027,-1.06232 -4.23402,-3.01436 -5.26169,-5.34024 -0.575457,-1.30242 -0.88562,-2.72841 -0.902784,-4.15221 h -0.0016 v -75.07241 c 1.612864,-0.30879 3.254644,-0.47129 4.897374,-0.48524 z"
       id="path4650"
       inkscape:connector-curvature="0" />
    <path
       id="path4741"
       d="m 86.052446,142.34699 c 0.52919,-0.007 1.05873,0.001 1.5875,0.0232 2.11507,0.0875 4.22005,0.40116 6.26939,0.93948 h 0.0212 v 116.78305 h -5.2e-4 l 5.2e-4,0.002 c -4.09767,1.21417 -8.4856,1.39672 -12.66952,0.52503 -2.95117,-0.61484 -5.82754,-1.75977 -8.33024,-3.5233 -1.19132,-0.83946 -2.29097,-1.82064 -3.25716,-2.92178 -5.542887,-1.65177 -10.648485,-4.70938 -14.717449,-8.82014 -3.99488,-4.0359 -6.961539,-9.06026 -8.578805,-14.50195 -4.337328,-3.19872 -7.698515,-7.67845 -9.540502,-12.74651 -2.323864,-6.39388 -2.162542,-13.61702 0.434597,-19.90318 -1.26206,-3.83426 -1.504516,-8.00351 -0.588592,-11.95793 1.133583,-4.89418 3.977264,-9.3395 7.926131,-12.43748 1.692529,-5.29187 4.668877,-10.15884 8.618595,-14.06839 4.117719,-4.07585 9.266648,-7.08045 14.835786,-8.67441 1.155247,-2.00618 2.810629,-3.69885 4.701519,-4.98367 2.58309,-1.75517 5.56065,-2.76535 8.54883,-3.29127 1.5651,-0.27547 3.15116,-0.42315 4.73873,-0.44287 z m 0.58033,2.40089 c -1.64273,-0.014 -3.28642,0.12061 -4.90306,0.40514 -2.73808,0.4819 -5.38952,1.39991 -7.61556,2.91248 -2.21748,1.50673 -4.01749,3.65589 -4.841565,6.11694 -0.902739,2.69597 -0.596534,5.8236 0.812355,8.29303 1.26234,2.2126 3.4317,3.92954 5.86889,4.69119 2.61228,-2.61184 6.36199,-3.9572 10.03918,-3.59719 l -0.23409,2.38848 c -2.94367,-0.2882 -6.05126,0.83239 -8.13491,2.9316 -1.78972,1.80307 -2.86941,4.34492 -2.92385,6.88485 -0.0545,2.53991 0.91433,5.12559 2.62516,7.00371 l -1.77353,1.61541 c -2.13899,-2.34814 -3.31805,-5.49619 -3.24993,-8.67183 0.0501,-2.33665 0.77676,-4.62762 2.04742,-6.57376 -2.65137,-1.0487 -4.92754,-2.99234 -6.348451,-5.48286 -1.663931,-2.91649 -2.085076,-6.46116 -1.174605,-9.68572 -4.448812,1.58121 -8.555159,4.14457 -11.909351,7.46466 -3.848758,3.80963 -6.719358,8.61894 -8.246006,13.81466 l -0.0052,-0.002 c -3.804653,2.75904 -6.582474,6.95255 -7.642942,11.53108 -1.385052,5.97983 0.248507,12.64646 4.243668,17.30644 3.545112,4.13506 8.937463,6.67385 14.384133,6.87555 -1.003125,-3.56767 -0.592296,-7.49141 1.17874,-10.7642 2.013791,-3.72142 5.692944,-6.43256 9.843844,-7.25382 l 0.466638,2.35541 c -3.419581,0.67658 -6.54049,2.97519 -8.199498,6.04097 -1.659012,3.06578 -1.878227,6.93511 -0.574128,10.16786 1.135531,2.81487 3.419547,5.19078 6.187736,6.43578 2.768192,1.24498 6.060462,1.3773 8.919872,0.35915 l 0.8046,2.25981 c -3.46221,1.23279 -7.357147,1.07594 -10.708907,-0.4315 -3.02728,-1.36151 -5.520205,-3.78654 -6.988204,-6.7541 -6.480304,0.0766 -12.90707,-2.79687 -17.134871,-7.72822 -1.094425,-1.27654 -2.028354,-2.67855 -2.795694,-4.16511 -1.520817,5.12923 -1.383678,10.76973 0.442349,15.79386 1.767811,4.86396 5.097825,9.16987 9.361186,12.10366 l -0.0031,0.005 0.0031,-0.001 c 1.443929,5.35426 4.305536,10.33227 8.206735,14.27355 3.038046,3.06926 6.713011,5.51237 10.711489,7.1515 -0.12033,-0.23253 -0.237276,-0.46744 -0.346231,-0.70642 -1.59326,-3.49449 -1.853433,-7.5398 -0.724503,-11.21068 l 2.292882,0.70487 c -0.951058,3.09251 -0.724705,6.56817 0.617534,9.51208 1.092265,2.39567 2.911385,4.47395 5.101495,6.0172 2.1935,1.54565 4.7642,2.57829 7.43727,3.13521 3.21115,0.66901 6.57029,0.64908 9.77925,-0.0408 v -30.54335 c -1.31247,1.84382 -3.09786,3.3427 -5.16402,4.29276 -2.85811,1.31421 -6.16373,1.54299 -9.17567,0.63511 l 0.6935,-2.29702 c 2.43461,0.73387 5.16988,0.54296 7.48016,-0.51935 2.31027,-1.06232 4.23402,-3.01436 5.26169,-5.34024 0.57546,-1.30242 0.88563,-2.72841 0.90279,-4.15221 h 0.002 v -75.07241 c -1.61289,-0.30879 -3.25465,-0.47129 -4.89737,-0.48524 z"
       style="color:#000000;font-style:normal;font-variant:normal;font-weight:normal;font-stretch:normal;font-size:medium;line-height:normal;font-family:sans-serif;font-variant-ligatures:normal;font-variant-position:normal;font-variant-caps:normal;font-variant-numeric:normal;font-variant-alternates:normal;font-feature-settings:normal;text-indent:0;text-align:start;text-decoration:none;text-decoration-line:none;text-decoration-style:solid;text-decoration-color:#000000;letter-spacing:normal;word-spacing:normal;text-transform:none;writing-mode:lr-tb;direction:ltr;text-orientation:mixed;dominant-baseline:auto;baseline-shift:baseline;text-anchor:start;white-space:normal;shape-padding:0;clip-rule:nonzero;display:inline;overflow:visible;visibility:visible;opacity:1;isolation:auto;mix-blend-mode:normal;color-interpolation:sRGB;color-interpolation-filters:linearRGB;solid-color:#000000;solid-opacity:1;vector-effect:none;fill:#2d323b;fill-opacity:1;fill-rule:nonzero;stroke:none;stroke-width:2.4000001;stroke-linecap:butt;stroke-linejoin:miter;stroke-miterlimit:4;stroke-dasharray:none;stroke-dashoffset:0;stroke-opacity:1;color-rendering:auto;image-rendering:auto;shape-rendering:auto;text-rendering:auto;enable-background:accumulate"
       inkscape:connector-curvature="0" />
    <path
       style="opacity:0.99299999;fill:#ffaaaa;fill-opacity:1;stroke:#ffd5d5;stroke-width:3.40157461;stroke-linejoin:round;stroke-miterlimit:4;stroke-dasharray:none;stroke-opacity:1"
       d="m 312.06485,573.84341 c -34.98993,-5.91208 -58.28334,-32.69134 -54.13556,-62.23697 0.48747,-3.47231 0.93496,-6.90061 0.99443,-7.61843 0.0834,-1.00647 -0.86278,-1.6109 -4.13452,-2.64124 -2.33345,-0.73485 -4.29668,-1.34079 -4.36274,-1.34651 -0.066,-0.006 -0.65866,2.29652 -1.31692,5.1161 -2.47609,10.60624 -1.12818,26.15319 3.12658,36.06245 0.79319,1.84732 1.26881,3.35876 1.05694,3.35876 -0.21188,0 -3.80172,-1.74758 -7.97743,-3.8835 -28.10603,-14.3766 -50.08419,-39.91797 -59.55884,-69.21485 -1.95703,-6.05138 -2.74562,-7.59226 -4.39153,-8.58089 -3.42544,-2.0575 -15.85421,-14.42512 -19.80707,-19.70961 -8.10591,-10.83661 -13.14572,-21.43021 -16.45803,-34.59453 -2.18176,-8.67108 -3.0688,-26.44942 -1.75312,-35.13646 1.08824,-7.18527 2.33034,-12.73769 2.83702,-12.68201 0.22979,0.0253 2.16789,2.77559 4.30689,6.11185 7.27265,11.34336 18.88115,21.59887 31.81981,28.11115 10.38435,5.22665 20.75842,8.06714 33.79018,9.25198 l 5.15237,0.46844 2.55023,3.99151 c 3.99811,6.25765 7.19764,9.84293 12.45471,13.95631 10.00693,7.82988 20.90849,11.60195 33.5305,11.60195 6.96179,0 16.74845,-1.54349 18.15894,-2.86392 0.36561,-0.34227 -0.0488,-2.41045 -0.98403,-4.9113 -1.26326,-3.37796 -1.8636,-4.21999 -2.75288,-3.86122 -3.26043,1.31538 -12.84923,2.4845 -17.04721,2.0785 -11.848,-1.14588 -20.29314,-5.03062 -28.34438,-13.03835 -9.83047,-9.77734 -13.88603,-20.23248 -13.17364,-33.96135 0.24908,-4.80014 0.89701,-8.88293 1.82811,-11.51928 4.96639,-14.06208 15.81734,-24.77515 29.26009,-28.88827 2.62513,-0.80322 4.77297,-1.69453 4.77297,-1.9807 0,-0.28617 -0.36213,-2.32346 -0.80473,-4.52732 -0.94707,-4.71581 -1.03656,-4.73953 -8.41525,-2.22987 -16.92948,5.75809 -30.14193,20.02611 -35.06067,37.86173 -1.47797,5.35923 -1.76477,21.30737 -0.46104,25.63704 l 0.8121,2.69697 -4.02138,-0.46715 c -26.08164,-3.02988 -48.23185,-18.06351 -59.35077,-40.28213 -11.52108,-23.02223 -10.56508,-50.93471 2.46377,-71.93532 4.50813,-7.26644 9.98426,-13.74987 15.39219,-18.22347 4.15972,-3.44104 4.60144,-4.09756 6.69545,-9.95152 9.55387,-26.70851 27.859,-49.09256 52.16053,-63.78347 5.99854,-3.62627 19.84121,-10.07862 20.40749,-9.51235 0.19153,0.19154 0.0237,2.93658 -0.37297,6.10009 -1.23972,9.88699 0.50856,19.01668 5.49841,28.71311 3.46716,6.7375 12.10966,15.36717 18.97379,18.94562 l 5.07808,2.64734 -1.72404,2.9921 c -2.54252,4.41259 -5.11089,13.06632 -5.65277,19.0461 -0.87776,9.68645 2.40146,22.04083 8.01803,30.20774 3.95359,5.74881 4.50035,5.89875 8.21531,2.2528 l 3.13497,-3.07674 -3.02056,-4.41198 c -10.35681,-15.12767 -8.50858,-34.82008 4.48782,-47.81648 7.20255,-7.20254 16.58203,-11.20449 26.32036,-11.23011 l 3.97334,-0.0105 0.43829,-2.65165 c 0.24106,-1.45841 0.44179,-3.73379 0.44607,-5.0564 l 0.008,-2.40474 -6.54501,0.42992 c -10.50741,0.69021 -18.71427,3.69329 -27.22133,9.96091 -2.43176,1.79162 -4.71232,3.25749 -5.06789,3.25749 -1.65444,0 -7.18987,-2.95804 -11.20877,-5.98976 -14.45036,-10.90091 -18.8967,-30.63335 -10.62608,-47.15755 10.06365,-20.10654 35.28341,-31.47766 66.60406,-30.03052 5.48621,0.25348 11.00907,0.65282 12.27303,0.88743 l 2.29809,0.42654 -0.0123,143.28565 c -0.0105,121.89509 -0.16409,144.00207 -1.02919,148.08467 -2.96901,14.01156 -14.12345,25.79098 -28.30347,29.88931 -4.69766,1.35772 -16.08028,1.59231 -19.95472,0.41125 l -2.27705,-0.69412 -1.12529,4.01047 c -0.6189,2.20575 -1.17462,4.32866 -1.23493,4.71757 -0.18301,1.18023 6.50588,2.33517 13.94021,2.40699 14.17355,0.13694 25.85416,-4.74712 35.84313,-14.98721 l 4.15358,-4.25801 v 56.94675 56.94675 l -5.33218,0.79307 c -7.01871,1.0439 -21.17121,0.89029 -28.25539,-0.30669 z"
       id="path4786"
       inkscape:connector-curvature="0"
       transform="matrix(0.26458333,0,0,0.26458333,0,106.5)" />
    <path
       style="opacity:0.99299999;fill:#ff8080;fill-opacity:1;stroke:#ffd5d5;stroke-width:3.40157461;stroke-linejoin:round;stroke-miterlimit:4;stroke-dasharray:none;stroke-opacity:1"
       d="m 384.88935,574.81857 c -3.11127,-0.29006 -6.691,-0.75771 -7.95495,-1.03923 l -2.2981,-0.51186 v -56.58582 -56.58581 l 5.7039,5.36582 c 9.54306,8.97743 20.41713,13.3706 33.18697,13.40768 5.95959,0.0173 14.84925,-1.22216 14.84925,-2.07039 0,-0.17275 -0.53707,-2.24582 -1.19349,-4.60682 -1.17324,-4.21991 -1.23021,-4.28603 -3.35876,-3.89815 -10.80483,1.96898 -18.90518,0.99914 -27.47329,-3.28934 -10.10123,-5.05582 -17.78508,-14.4535 -20.66431,-25.27333 -0.89042,-3.34612 -1.03465,-23.91156 -1.04188,-148.56402 l -0.008,-144.68027 7.09641,-0.80695 c 17.45607,-1.98495 34.84401,0.47787 49.2156,6.97089 13.35774,6.03497 24.32396,18.04903 27.45809,30.08176 1.35557,5.20441 1.3818,14.34021 0.0554,19.32345 -2.95331,11.09603 -11.07039,20.66314 -21.4727,25.30859 l -3.76162,1.67986 -2.71311,-2.31099 c -8.11505,-6.91231 -17.46973,-10.51257 -28.5851,-11.00135 l -7.70878,-0.33898 0.45128,1.68624 c 0.2482,0.92744 0.45562,3.03859 0.46093,4.69145 l 0.01,3.0052 3.35875,0.0123 c 9.10834,0.0333 20.51525,4.44074 26.54163,10.25526 13.97625,13.48491 16.07116,33.06336 5.26872,49.24013 l -2.92071,4.37379 3.49802,3.09914 3.49801,3.09914 2.23261,-2.555 c 6.07459,-6.95181 10.14881,-18.8676 10.13131,-29.63086 -0.0148,-9.1028 -1.67535,-15.19686 -6.90437,-25.33838 -0.14916,-0.28929 0.60835,-0.86038 1.68335,-1.2691 3.50397,-1.33221 11.27784,-6.91111 14.6424,-10.5081 8.07397,-8.63173 12.33647,-18.61504 13.01785,-30.48948 0.22808,-3.97472 0.0523,-8.28717 -0.42935,-10.53301 -0.44855,-2.09154 -0.69166,-3.92669 -0.54024,-4.07812 0.41248,-0.41247 12.69069,5.02887 17.67197,7.8317 11.18116,6.29133 23.76543,16.41755 31.72774,25.53046 10.07735,11.53357 19.84702,28.34109 23.95836,41.21743 1.48896,4.66328 2.01407,5.43891 5.50521,8.13173 6.95443,5.36414 14.22725,14.6165 19.0479,24.23244 6.3349,12.63643 8.83902,26.31524 7.31934,39.98209 -3.41075,30.67357 -22.44496,54.18778 -51.42747,63.53168 -6.15789,1.98529 -18.32686,4.17295 -19.0713,3.42851 -0.19736,-0.19736 0.002,-2.04209 0.44338,-4.09941 0.47023,-2.19262 0.67541,-7.42933 0.49581,-12.65433 -0.26276,-7.64418 -0.6151,-9.79613 -2.47381,-15.10887 -1.19207,-3.40731 -3.23823,-8.02119 -4.54701,-10.25305 -3.33552,-5.68806 -13.36779,-15.59701 -19.35016,-19.11232 -4.99512,-2.93518 -16.26125,-7.10384 -17.0546,-6.31049 -0.23589,0.2359 -0.83574,2.37852 -1.333,4.76139 -0.66928,3.20718 -0.69449,4.39067 -0.0971,4.55649 10.38496,2.88239 15.99776,6.05733 22.8691,12.93617 10.18324,10.19432 14.57523,24.54294 11.95666,39.06236 -4.4298,24.5624 -28.64697,40.78488 -53.34662,35.73561 -3.24106,-0.66256 -5.98215,-1.09872 -6.0913,-0.96924 -0.77363,0.91769 -3.07308,8.37365 -2.66101,8.62832 0.28388,0.17545 2.58148,0.88011 5.10578,1.56591 6.64903,1.80641 19.79664,1.67757 26.95941,-0.26419 13.46276,-3.64963 25.55439,-12.78371 32.76873,-24.75366 l 2.10359,-3.49024 6.07886,-0.43149 c 27.77175,-1.9713 54.02142,-17.91373 66.96064,-40.66777 l 2.15355,-3.78709 1.13237,4.97867 c 5.84835,25.71321 0.9914,52.47595 -13.46695,74.20551 -4.58863,6.89628 -15.26759,18.32751 -20.97273,22.45012 -3.78474,2.73491 -3.95538,3.00638 -6.1074,9.71629 -2.73266,8.52038 -9.95316,23.05624 -15.14684,30.49272 -11.83624,16.94747 -26.57259,29.87996 -44.49254,39.04624 -4.22903,2.1632 -7.80198,3.82027 -7.93988,3.68237 -0.1379,-0.1379 0.64837,-2.79146 1.74725,-5.8968 2.78755,-7.87727 3.85225,-15.30449 3.37151,-23.51923 -0.44735,-7.64424 -1.78745,-14.2921 -2.88105,-14.2921 -0.39383,0 -2.58278,0.52377 -4.86432,1.16394 -3.27825,0.91983 -4.05631,1.40182 -3.70981,2.2981 2.15603,5.57688 2.33692,18.78477 0.36296,26.50285 -2.41416,9.43928 -6.40237,16.08249 -14.48554,24.12878 -8.08121,8.04431 -13.93591,11.73342 -24.76202,15.60282 -10.96299,3.91833 -25.04405,5.66913 -36.7887,4.57423 z"
       id="path4788"
       inkscape:connector-curvature="0"
       transform="matrix(0.26458333,0,0,0.26458333,0,106.5)" />
  </g>
</svg>
